#!OML:ASF Y:\EmotionMaleHayes\Project 1\Capture day 1\Session 1\Male1.ASF
:FULLY-SPECIFIED
:DEGREES
345
root -27.4313 16.7767 -8.31451 161.518 57.839 156.577
lowerback 10.7984 -0.942186 -17.7549
upperback 3.7139 -2.73525 -2.941
thorax -1.30503 -1.27545 7.07842
lowerneck -18.5024 -8.2335 -8.39388
upperneck 24.8065 -11.2909 8.9937
head 12.295 -4.59158 2.94057
rclavicle -6.70898e-014 1.39149e-014
rhumerus -46.9126 0.573852 -83.7967
rradius 29.1199
rwrist 4.06309
rhand -8.91997 -30.8324
rfingers 7.12502
rthumb 17.0235 -60.1064
lclavicle -6.70898e-014 1.39149e-014
lhumerus -12.6627 -17.7985 82.6157
lradius 46.9296
lwrist 9.75238
lhand -22.1974 -24.8932
lfingers 7.12502
lthumb 4.21814 5.04481
rfemur -30.3946 -8.96957 12.6395
rtibia 47.8652
rfoot -15.4434 -9.72584
rtoes 19.5698
lfemur 12.8241 7.68678 -28.1956
ltibia 4.52143
lfoot -17.3918 9.47747
ltoes -15.349
346
root -27.3464 16.7541 -8.39991 161.104 57.7638 156.034
lowerback 10.6755 -1.05068 -17.8803
upperback 3.70611 -2.86228 -2.99738
thorax -1.20784 -1.34423 7.09144
lowerneck -18.4623 -8.22399 -8.33885
upperneck 24.7364 -11.3038 9.03207
head 12.2599 -4.5905 2.94396
rclavicle -8.24956e-015 -5.80451e-014
rhumerus -47.1111 -0.547037 -83.0957
rradius 29.0095
rwrist 4.94648
rhand -8.4813 -30.9853
rfingers 7.12502
rthumb 17.4457 -60.2224
lclavicle -8.24956e-015 -5.80451e-014
lhumerus -12.0306 -18.4412 82.3529
lradius 47.226
lwrist 9.86999
lhand -21.9383 -25.2859
lfingers 7.12502
lthumb 4.46832 4.64696
rfemur -31.0584 -9.78962 12.8469
rtibia 46.1175
rfoot -15.5421 -9.61407
rtoes 19.8282
lfemur 13.3426 7.80309 -28.5856
ltibia 4.28702
lfoot -17.5773 9.0774
ltoes -12.7007
347
root -27.2623 16.733 -8.4867 160.758 57.5488 155.539
lowerback 10.5897 -1.24653 -18.053
upperback 3.70741 -3.11599 -2.98888
thorax -1.08152 -1.48045 7.21147
lowerneck -18.451 -8.16553 -8.3966
upperneck 24.5445 -11.1957 9.03481
head 12.1747 -4.55632 2.97091
rclavicle -2.88238e-014 2.94201e-014
rhumerus -47.2264 -1.03732 -82.6111
rradius 28.8322
rwrist 5.46123
rhand -8.24831 -30.871
rfingers 7.12502
rthumb 17.6699 -60.0881
lclavicle -2.88238e-014 2.94201e-014
lhumerus -11.4802 -18.8639 82.1194
lradius 47.6128
lwrist 9.89425
lhand -21.5774 -25.5202
lfingers 7.12502
lthumb 4.81688 4.40506
rfemur -31.318 -10.5076 12.9505
rtibia 43.7428
rfoot -15.2048 -9.77417
rtoes 20.2833
lfemur 13.803 7.87328 -29.0221
ltibia 4.11584
lfoot -17.4929 8.56228
ltoes -10.4357
348
root -27.174 16.7036 -8.56641 160.478 57.3548 155.046
lowerback 10.4648 -1.37767 -18.2317
upperback 3.64819 -3.28682 -3.00648
thorax -1.02151 -1.56744 7.29827
lowerneck -18.3691 -8.17993 -8.39569
upperneck 24.4571 -11.2074 9.00175
head 12.1228 -4.57139 2.95699
rclavicle -5.56597e-015 -2.54444e-014
rhumerus -47.5322 -1.38773 -82.3599
rradius 28.8353
rwrist 5.34497
rhand -8.37937 -30.9748
rfingers 7.12502
rthumb 17.5438 -60.2032
lclavicle -5.56597e-015 -2.54444e-014
lhumerus -10.943 -19.5588 81.9067
lradius 47.8877
lwrist 9.75914
lhand -21.313 -25.586
lfingers 7.12502
lthumb 5.0721 4.33327
rfemur -31.7019 -11.2496 13.0582
rtibia 41.4062
rfoot -14.8463 -9.97523
rtoes 21.6495
lfemur 14.1431 7.94301 -29.4063
ltibia 4.01353
lfoot -17.7612 8.4485
ltoes -11.1168
349
root -27.079 16.6713 -8.65145 160.137 56.91 154.518
lowerback 10.3482 -1.47818 -18.3092
upperback 3.58541 -3.40313 -3.17461
thorax -1.00027 -1.61723 7.16263
lowerneck -18.0281 -8.28206 -8.21111
upperneck 24.2834 -11.4172 9.01188
head 11.9975 -4.65962 2.90109
rclavicle -6.13251e-014 1.35174e-014
rhumerus -47.9557 -2.33055 -82.0235
rradius 28.7917
rwrist 5.29637
rhand -8.61841 -31.1196
rfingers 7.12502
rthumb 17.3137 -60.3684
lclavicle -6.13251e-014 1.35174e-014
lhumerus -10.3824 -20.7846 81.6423
lradius 48.0268
lwrist 9.43434
lhand -21.4008 -25.4667
lfingers 7.12502
lthumb 4.98735 4.45456
rfemur -31.8839 -11.7963 12.8688
rtibia 38.8243
rfoot -14.6107 -10.6479
rtoes 24.091
lfemur 14.5627 7.80697 -29.9729
ltibia 3.91408
lfoot -17.9623 8.46302
ltoes -12.8477
